# xmcd CD database file
#
# Track frame offsets:
#	150
#	14441
#	26543
#	40577
#	52329
#	66351
#	79148
#	93068
#	104624
#	117620
#	131794
#	144968
#	157424
#	169539
#	183961
#	198948
#
# Disc length: 2843 seconds
#
# Revision: 5
# Processed by: cddbd v1.5.2PL0 Copyright (c) Steve Scherf et al.
# Submitted via: CDex 1.70beta2
#
DISCID=e00b1910
DTITLE=Ella Fitzgerald - Goodnight My Love
DYEAR=1999
DGENRE=Jazz
TTITLE0=Goodnight My Love
TTITLE1=I'm The Lonliest Gal In Town
TTITLE2=You Can't Be Mine And Somebody Else's Too
TTITLE3=Three Little Words
TTITLE4=Keep Cool Fool
TTITLE5=Ella
TTITLE6=My Man
TTITLE7=I Can't Believe That You're In Love With Me
TTITLE8=Strictly From Dixie
TTITLE9=I Must Have That Man
TTITLE10=Woe Is Me
TTITLE11=Melinda The Mousie
TTITLE12=When My Sugar Walks Down The Street
TTITLE13=Love You're Just a Laugh
TTITLE14=Stairway To The Stars
TTITLE15=That's All Brother
EXTD=YEAR: 1999
EXTT0=
EXTT1=
EXTT2=
EXTT3=
EXTT4=
EXTT5=
EXTT6=
EXTT7=
EXTT8=
EXTT9=
EXTT10=
EXTT11=
EXTT12=
EXTT13=
EXTT14=
EXTT15=
PLAYORDER=
